<svg width="34" height="34" viewBox="0 0 34 34" fill="none" xmlns="http://www.w3.org/2000/svg">
<path fill-rule="evenodd" clip-rule="evenodd" d="M17 2.83334C14.1235 2.83334 11.8278 3.86153 10.2683 5.63946C8.73229 7.39064 8.02778 9.73332 8.02778 12.1833V14.6389C8.02778 14.9846 7.87265 15.4005 7.46818 15.9372C7.08047 16.4516 6.57715 16.934 6.02115 17.467L5.92693 17.5573C4.95829 18.4866 4.25 19.8328 4.25 21.4389C4.25 23.6159 5.9475 25.5 8.18518 25.5H25.8148C28.0525 25.5 29.75 23.6159 29.75 21.4389C29.75 19.8328 29.0417 18.4866 28.0731 17.5573L27.9788 17.467L27.9788 17.467C27.4228 16.934 26.9195 16.4516 26.5318 15.9372C26.1273 15.4005 25.9722 14.9846 25.9722 14.6389V12.1833C25.9722 9.73332 25.2677 7.39064 23.7317 5.63946C22.1722 3.86153 19.8765 2.83334 17 2.83334Z" fill="black"/>
<path fill-rule="evenodd" clip-rule="evenodd" d="M13.3777 27.1568C14.0275 26.721 14.9075 26.8945 15.3433 27.5443C15.4841 27.7543 15.7028 27.9523 15.9969 28.0988C16.2914 28.2455 16.638 28.3283 17 28.3283C17.3621 28.3283 17.7087 28.2455 18.0031 28.0988C18.2972 27.9523 18.516 27.7543 18.6568 27.5443C19.0925 26.8945 19.9726 26.721 20.6224 27.1568C21.2722 27.5925 21.4457 28.4726 21.0099 29.1224C20.5749 29.7712 19.967 30.2859 19.2666 30.6349C18.5666 30.9836 17.7857 31.1617 17 31.1617C16.2144 31.1617 15.4335 30.9836 14.7334 30.6349C14.033 30.2859 13.4252 29.7712 12.9901 29.1224C12.5543 28.4726 12.7278 27.5925 13.3777 27.1568Z" fill="black"/>
</svg>
