<svg width="42" height="42" viewBox="0 0 42 42" fill="none" xmlns="http://www.w3.org/2000/svg">
<path d="M38.5 21C38.5 23.9402 30.665 34.3 21 34.3C11.335 34.3 3.5 23.9402 3.5 21C3.5 18.0597 11.335 7.69995 21 7.69995C30.665 7.69995 38.5 18.0597 38.5 21Z" fill="#D7E0FF"/>
<path d="M36.575 21C36.575 20.9996 36.5593 21.2108 36.3651 21.681C36.1856 22.1159 35.9006 22.6597 35.503 23.2814C34.7086 24.5236 33.5324 25.9711 32.0605 27.3457C29.0807 30.1284 25.154 32.375 21 32.375V36.225C26.511 36.225 31.3343 33.2917 34.6882 30.1595C36.3832 28.5766 37.7698 26.8829 38.7465 25.3556C39.2345 24.5926 39.6371 23.8447 39.9238 23.1502C40.1959 22.4911 40.425 21.7354 40.425 21H36.575ZM21 32.375C16.846 32.375 12.9193 30.1284 9.9395 27.3457C8.46762 25.9711 7.29136 24.5236 6.49696 23.2814C6.09939 22.6597 5.81438 22.1159 5.63487 21.681C5.44074 21.2108 5.425 20.9996 5.425 21H1.575C1.575 21.7354 1.8041 22.4911 2.07621 23.1502C2.36293 23.8447 2.76554 24.5926 3.25351 25.3556C4.23021 26.8829 5.61677 28.5766 7.31176 30.1595C10.6657 33.2917 15.489 36.225 21 36.225V32.375ZM5.425 21C5.425 21.0003 5.44074 20.7891 5.63487 20.3189C5.81438 19.8841 6.09939 19.3402 6.49696 18.7185C7.29136 17.4764 8.46762 16.0288 9.9395 14.6543C12.9193 11.8715 16.846 9.62495 21 9.62495V5.77495C15.489 5.77495 10.6657 8.70825 7.31176 11.8404C5.61677 13.4234 4.23021 15.117 3.25351 16.6443C2.76554 17.4073 2.36293 18.1552 2.07621 18.8497C1.8041 19.5088 1.575 20.2646 1.575 21H5.425ZM21 9.62495C25.154 9.62495 29.0807 11.8715 32.0605 14.6543C33.5324 16.0288 34.7086 17.4764 35.503 18.7185C35.9006 19.3402 36.1856 19.8841 36.3651 20.3189C36.5593 20.7891 36.575 21.0003 36.575 21H40.425C40.425 20.2646 40.1959 19.5088 39.9238 18.8497C39.6371 18.1552 39.2345 17.4073 38.7465 16.6443C37.7698 15.117 36.3832 13.4234 34.6882 11.8404C31.3343 8.70825 26.511 5.77495 21 5.77495V9.62495Z" fill="#3461FD"/>
<path d="M20.9999 26.5999C24.0927 26.5999 26.5999 24.0927 26.5999 20.9999C26.5999 17.9071 24.0927 15.3999 20.9999 15.3999C17.9071 15.3999 15.3999 17.9071 15.3999 20.9999C15.3999 24.0927 17.9071 26.5999 20.9999 26.5999Z" fill="white" stroke="#3461FD" stroke-width="3.85" stroke-linecap="round" stroke-linejoin="round"/>
</svg>
