<svg width="34" height="34" viewBox="0 0 34 34" fill="none" xmlns="http://www.w3.org/2000/svg">
<path fill-rule="evenodd" clip-rule="evenodd" d="M17 2.83334C9.17601 2.83334 2.83337 9.17598 2.83337 17C2.83337 24.824 9.17601 31.1667 17 31.1667C24.8241 31.1667 31.1667 24.824 31.1667 17C31.1667 9.17598 24.8241 2.83334 17 2.83334ZM17 9.91668C17.7824 9.91668 18.4167 10.5509 18.4167 11.3333V15.5833H22.6667C23.4491 15.5833 24.0834 16.2176 24.0834 17C24.0834 17.7824 23.4491 18.4167 22.6667 18.4167H18.4167V22.6667C18.4167 23.4491 17.7824 24.0833 17 24.0833C16.2176 24.0833 15.5834 23.4491 15.5834 22.6667V18.4167H11.3334C10.551 18.4167 9.91671 17.7824 9.91671 17C9.91671 16.2176 10.551 15.5833 11.3334 15.5833H15.5834V11.3333C15.5834 10.5509 16.2176 9.91668 17 9.91668Z" fill="black"/>
</svg>
